<svg xmlns="http://www.w3.org/2000/svg" xmlns:xlink="http://www.w3.org/1999/xlink" width="500" zoomAndPan="magnify" viewBox="0 0 375 374.999991" height="500" preserveAspectRatio="xMidYMid meet" version="1.0"><defs><clipPath id="ef5cc04272"><path d="M 37.5 0 L 337.5 0 C 347.445312 0 356.984375 3.949219 364.015625 10.984375 C 371.050781 18.015625 375 27.554688 375 37.5 L 375 337.5 C 375 347.445312 371.050781 356.984375 364.015625 364.015625 C 356.984375 371.050781 347.445312 375 337.5 375 L 37.5 375 C 27.554688 375 18.015625 371.050781 10.984375 364.015625 C 3.949219 356.984375 0 347.445312 0 337.5 L 0 37.5 C 0 27.554688 3.949219 18.015625 10.984375 10.984375 C 18.015625 3.949219 27.554688 0 37.5 0 Z M 37.5 0 " clip-rule="nonzero"/></clipPath><clipPath id="8f6a5f8d4c"><path d="M 110.160156 66.996094 L 264.578125 66.996094 L 264.578125 307.746094 L 110.160156 307.746094 Z M 110.160156 66.996094 " clip-rule="nonzero"/></clipPath></defs><g clip-path="url(#ef5cc04272)"><rect x="-37.5" width="450" fill="#000000" y="-37.499999" height="449.999989" fill-opacity="1"/></g><g clip-path="url(#8f6a5f8d4c)"><path fill="#ffffff" d="M 246.328125 300.09375 C 244.367188 300.808594 242.300781 301.171875 240.21875 301.171875 L 134.761719 301.171875 C 124.941406 301.171875 116.984375 293.214844 116.984375 283.394531 C 116.984375 281.308594 117.347656 279.242188 118.0625 277.289062 L 156.585938 171.890625 C 132.199219 154.820312 126.257812 121.214844 143.324219 96.824219 C 160.390625 72.433594 194.003906 66.496094 218.394531 83.558594 C 242.785156 100.628906 248.722656 134.234375 231.652344 158.628906 C 228.042969 163.792969 223.554688 168.277344 218.394531 171.890625 L 256.921875 277.289062 C 260.289062 286.511719 255.546875 296.722656 246.328125 300.09375 Z M 263.324219 274.945312 L 226.519531 174.246094 C 230.589844 170.835938 234.179688 166.914062 237.238281 162.539062 C 246.542969 149.25 250.109375 133.132812 247.289062 117.164062 C 244.46875 101.1875 235.59375 87.273438 222.308594 77.972656 C 212.042969 70.796875 200.019531 66.996094 187.535156 66.996094 C 167.707031 66.996094 149.09375 76.6875 137.738281 92.914062 C 119.566406 118.882812 124.601562 154.261719 148.464844 174.25 L 111.65625 274.945312 C 110.664062 277.652344 110.160156 280.496094 110.160156 283.394531 C 110.160156 296.957031 121.195312 307.992188 134.761719 307.992188 L 240.21875 307.992188 C 243.117188 307.992188 245.957031 307.492188 248.667969 306.5 C 254.839844 304.242188 259.761719 299.71875 262.53125 293.757812 C 265.300781 287.800781 265.578125 281.113281 263.324219 274.945312 " fill-opacity="1" fill-rule="nonzero"/></g><path fill="#ffffff" d="M 201.445312 171.234375 C 200.089844 167.539062 201.6875 163.410156 205.179688 161.589844 C 223.882812 151.820312 231.128906 128.734375 221.359375 110.03125 C 214.683594 97.246094 201.375 89.3125 186.949219 89.511719 C 166.316406 89.796875 149.417969 106.820312 149.289062 127.464844 C 149.164062 141.792969 157.089844 154.980469 169.804688 161.589844 C 173.296875 163.414062 174.890625 167.539062 173.542969 171.238281 L 132.804688 282.675781 C 132.410156 283.757812 132.964844 284.953125 134.042969 285.347656 C 134.277344 285.4375 134.515625 285.476562 134.761719 285.476562 L 240.21875 285.476562 C 241.371094 285.476562 242.300781 284.542969 242.300781 283.394531 C 242.300781 283.148438 242.261719 282.90625 242.179688 282.675781 L 201.445312 171.234375 " fill-opacity="1" fill-rule="nonzero"/></svg>