<svg xmlns="http://www.w3.org/2000/svg" xmlns:xlink="http://www.w3.org/1999/xlink" width="500" zoomAndPan="magnify" viewBox="0 0 375 374.999991" height="500" preserveAspectRatio="xMidYMid meet" version="1.0"><defs><clipPath id="faa20df584"><path d="M 35 16.40625 L 339 16.40625 L 339 358.40625 L 35 358.40625 Z M 35 16.40625 " clip-rule="nonzero"/></clipPath></defs><path fill="#213147" d="M 47.324219 120.375 L 47.324219 254.4375 C 47.324219 263.054688 51.835938 270.855469 59.363281 275.230469 L 175.503906 342.265625 C 182.890625 346.503906 192.058594 346.503906 199.445312 342.265625 L 315.585938 275.230469 C 322.976562 270.992188 327.625 263.054688 327.625 254.4375 L 327.625 120.375 C 327.625 111.753906 323.113281 103.957031 315.585938 99.582031 L 199.445312 32.546875 C 192.058594 28.308594 182.890625 28.308594 175.503906 32.546875 L 59.363281 99.582031 C 51.972656 103.820312 47.460938 111.753906 47.460938 120.375 Z M 47.324219 120.375 " fill-opacity="1" fill-rule="nonzero"/><path fill="#12aaff" d="M 212.714844 213.398438 L 196.160156 258.816406 C 195.75 260.046875 195.75 261.414062 196.160156 262.78125 L 224.617188 340.894531 L 257.585938 321.878906 L 218.050781 213.398438 C 217.09375 210.9375 213.671875 210.9375 212.714844 213.398438 Z M 212.714844 213.398438 " fill-opacity="1" fill-rule="nonzero"/><path fill="#12aaff" d="M 245.957031 137.0625 C 245 134.601562 241.578125 134.601562 240.621094 137.0625 L 224.070312 182.480469 C 223.660156 183.710938 223.660156 185.082031 224.070312 186.449219 L 270.71875 314.355469 L 303.6875 295.339844 L 245.957031 137.199219 Z M 245.957031 137.0625 " fill-opacity="1" fill-rule="nonzero"/><g clip-path="url(#faa20df584)"><path fill="#9dcced" d="M 187.40625 37.609375 C 188.226562 37.609375 189.046875 37.882812 189.730469 38.292969 L 315.3125 110.796875 C 316.820312 111.617188 317.640625 113.261719 317.640625 114.902344 L 317.640625 259.910156 C 317.640625 261.550781 316.683594 263.195312 315.3125 264.015625 L 189.730469 336.519531 C 189.046875 336.929688 188.226562 337.203125 187.40625 337.203125 C 186.585938 337.203125 185.765625 336.929688 185.082031 336.519531 L 59.5 264.015625 C 57.992188 263.195312 57.171875 261.550781 57.171875 259.910156 L 57.171875 114.765625 C 57.171875 113.125 58.128906 111.480469 59.5 110.660156 L 185.082031 38.15625 C 185.765625 37.746094 186.585938 37.472656 187.40625 37.472656 Z M 187.40625 16.40625 C 182.890625 16.40625 178.515625 17.5 174.410156 19.828125 L 48.828125 92.332031 C 40.757812 96.980469 35.832031 105.464844 35.832031 114.765625 L 35.832031 259.773438 C 35.832031 269.074219 40.757812 277.558594 48.828125 282.207031 L 174.410156 354.710938 C 178.378906 357.039062 182.890625 358.132812 187.40625 358.132812 C 191.921875 358.132812 196.296875 357.039062 200.402344 354.710938 L 325.984375 282.207031 C 334.054688 277.558594 338.980469 269.074219 338.980469 259.773438 L 338.980469 114.765625 C 338.980469 105.464844 334.054688 96.980469 325.984375 92.332031 L 200.265625 19.828125 C 196.296875 17.5 191.785156 16.40625 187.269531 16.40625 Z M 187.40625 16.40625 " fill-opacity="1" fill-rule="nonzero"/></g><path fill="#213147" d="M 104.230469 314.492188 L 115.859375 282.753906 L 139.117188 302.042969 L 117.363281 322.015625 Z M 104.230469 314.492188 " fill-opacity="1" fill-rule="nonzero"/><path fill="#ffffff" d="M 176.734375 104.503906 L 144.863281 104.503906 C 142.535156 104.503906 140.347656 106.011719 139.527344 108.199219 L 71.261719 295.339844 L 104.230469 314.355469 L 179.472656 108.199219 C 180.15625 106.285156 178.789062 104.367188 176.871094 104.367188 Z M 176.734375 104.503906 " fill-opacity="1" fill-rule="nonzero"/><path fill="#ffffff" d="M 232.550781 104.503906 L 200.675781 104.503906 C 198.351562 104.503906 196.160156 106.011719 195.339844 108.199219 L 117.363281 321.878906 L 150.332031 340.894531 L 235.148438 108.199219 C 235.832031 106.285156 234.464844 104.367188 232.550781 104.367188 Z M 232.550781 104.503906 " fill-opacity="1" fill-rule="nonzero"/></svg>